<?xml version="1.0" encoding="UTF-8" standalone="no"?>
<!-- Created with Inkscape (http://www.inkscape.org/) -->

<svg
   version="1.1"
   id="svg2"
   width="1024.015"
   height="1024"
   viewBox="0 0 1024.015 1024"
   sodipodi:docname="queipuso-logo.png"
   inkscape:export-filename="queipuso-logo.svg"
   inkscape:export-xdpi="96"
   inkscape:export-ydpi="96"
   xmlns:inkscape="http://www.inkscape.org/namespaces/inkscape"
   xmlns:sodipodi="http://sodipodi.sourceforge.net/DTD/sodipodi-0.dtd"
   xmlns="http://www.w3.org/2000/svg"
   xmlns:svg="http://www.w3.org/2000/svg">
  <defs
     id="defs6" />
  <sodipodi:namedview
     id="namedview4"
     pagecolor="#505050"
     bordercolor="#eeeeee"
     borderopacity="1"
     inkscape:showpageshadow="0"
     inkscape:pageopacity="0"
     inkscape:pagecheckerboard="0"
     inkscape:deskcolor="#505050"
     showgrid="false" />
  <g
     inkscape:groupmode="layer"
     inkscape:label="Image"
     id="g8">
    <path
       style="fill:#000000"
       d="m 659.5,1007.012 c -11.65694,-1.7358 -29.35099,-5.53 -38.5,-8.25585 l -4.5,-1.34072 -0.28318,-11.87453 c -0.15575,-6.531 0.0693,-12.22283 0.5,-12.64852 0.43075,-0.42569 6.60387,0.53122 13.71805,2.12645 25.42821,5.70186 42.81528,7.96059 61.37358,7.97297 20.66101,0.0138 33.84399,-3.23017 46.79506,-11.51486 2.98943,-1.91232 6.08746,-3.47694 6.88452,-3.47694 0.8737,0 1.2219,-0.59233 0.87683,-1.49157 -0.68014,-1.77241 2.51296,-3.32415 3.51246,-1.70693 0.43622,0.70582 1.19741,0.76286 2.14907,0.16103 0.99616,-0.62997 1.06861,-0.93687 0.22361,-0.94722 -2.02938,-0.0249 -1.42922,-2.77637 0.97251,-4.45861 1.22237,-0.85618 1.88823,-1.5567 1.47967,-1.5567 -0.40855,0 0.17546,-1.8 1.29782,-4 2.49656,-4.89365 4,-5.1218 4,-0.60699 0,2.09352 0.57449,3.61346 1.5,3.96862 0.825,0.31658 1.5,1.29128 1.5,2.166 0,0.87472 0.45734,1.30775 1.01631,0.96229 0.55897,-0.34546 0.81515,-0.95361 0.56928,-1.35143 -0.24587,-0.39783 0.42179,-0.78877 1.48369,-0.86876 1.41941,-0.10692 1.93072,0.50017 1.93072,2.29242 0,1.60866 -0.56689,2.43785 -1.66667,2.43785 -0.91666,0 -1.40058,0.26609 -1.07536,0.59131 0.32522,0.32521 1.52611,0.29461 2.66865,-0.068 1.61245,-0.51177 1.94074,-1.20358 1.46695,-3.09131 -0.49424,-1.96923 -0.22954,-2.432 1.39103,-2.432 1.10078,0 2.26044,-0.675 2.57703,-1.5 0.31658,-0.825 0.13972,-1.5 -0.39301,-1.5 -0.53274,0 -0.96862,0.45 -0.96862,1 0,0.55 -0.45,1 -1,1 -0.55,0 -1,-0.675 -1,-1.5 0,-0.825 0.39752,-1.5 0.88337,-1.5 0.48585,0 1.11872,-0.9 1.40638,-2 0.57446,-2.19673 2.78439,-2.56587 5.77599,-0.96482 2.29757,1.22963 2.55173,2.96482 0.43426,2.96482 -0.825,0 -1.5,0.3876 -1.5,0.86133 0,0.47373 1.125,0.64627 2.5,0.38342 4.1049,-0.7847 3.69044,0.34651 -6.04497,16.49893 -1.07526,1.78402 -2.54409,3.24652 -3.26405,3.25 -0.71996,0.003 -1.07912,0.37829 -0.79814,0.83293 0.57279,0.92679 -9.65378,11.12769 -16.08538,16.045 -9.16918,7.01035 -28.80749,14.19389 -43.80746,16.02439 -13.07952,1.5962 -36.07333,1.1896 -50,-0.884 z m 105.73992,-36.36372 c 0.63721,0.39382 0.77678,0.18776 0.34549,-0.51008 -0.85086,-1.37672 -2.62054,-0.55006 -2.50646,1.17082 0.0565,0.85244 0.22291,0.83389 0.58541,-0.0652 0.27855,-0.69093 0.98755,-0.9589 1.57556,-0.59549 z M 757.5,960.77695 c 0.57068,-0.42591 0.24868,-0.7529 -0.75,-0.76164 -0.97279,-0.009 -1.75,0.72489 -1.75,1.65136 0,0.91666 0.3375,1.2594 0.75,0.76163 0.4125,-0.49777 1.2,-1.24088 1.75,-1.65135 z m 8.07312,-5.447 c -0.76325,-1.98899 1.53535,-3.75723 2.63517,-2.02716 1.20765,1.89968 0.91531,3.69721 -0.6013,3.69721 -0.76616,0 -1.6814,-0.75152 -2.03387,-1.67005 z m -4.49417,-0.91328 c 0.048,-1.16495 0.28494,-1.4019 0.60416,-0.60417 0.28887,0.72187 0.25335,1.58438 -0.0789,1.91667 -0.33229,0.33229 -0.56864,-0.25834 -0.52522,-1.3125 z M 768.5,951.28693 c -1.1,-0.26458 -2.4275,-0.88738 -2.95,-1.38399 -1.2794,-1.21602 -2.82185,-1.15183 -2.05708,0.0856 0.34345,0.55571 -0.0347,0.74078 -0.86366,0.42268 -2.2864,-0.87738 -2.78214,-3.34645 -1.42529,-7.09874 0.98691,-2.72926 1.65428,-3.31834 3.26809,-2.8847 1.11537,0.29969 2.70294,0.56536 3.52794,0.59036 1.2119,0.0367 1.16175,0.30216 -0.26109,1.382 -1.5128,1.14812 -1.55898,1.50429 -0.32759,2.52625 1.09815,0.91139 4.20979,7.49848 3.28666,6.9576 -0.10889,-0.0638 -1.09798,-0.33248 -2.19798,-0.59707 z m 15.57895,-3.87026 c 0.048,-1.16495 0.28494,-1.4019 0.60416,-0.60417 0.28887,0.72187 0.25335,1.58438 -0.0789,1.91667 -0.33229,0.33229 -0.56864,-0.25834 -0.52522,-1.3125 z M 773,943.56642 C 773,942.48321 773.95115,942 776.08333,942 c 3.82597,0 3.48268,2.35554 -0.41045,2.81642 C 773.77861,945.04067 773,944.67655 773,943.56642 Z M 197,886.24494 V 874.2137 l 6.25,-1.09068 c 9.17577,-1.60126 19.7636,-7.22787 27.71393,-14.7278 27.07263,-25.53895 39.74058,-71.73856 35.08757,-127.96319 -1.90801,-23.05526 -11.42264,-51.29361 -23.06115,-68.44279 -6.1385,-9.045 -16.82753,-18.37376 -26.21663,-22.88034 C 210.38132,636.04067 200.19877,633 196.31634,633 196.14235,633 196,627.55582 196,620.90181 v -12.09818 l 6.25,0.66751 c 20.9075,2.23298 40.88408,12.94445 55.40995,29.7109 7.25415,8.37308 11.08477,14.28678 17.04755,26.31796 7.64835,15.43218 11.60259,27.90605 14.89908,47 2.10659,12.20177 3.05008,55.79328 1.49485,69.06534 -4.92272,42.00975 -18.50972,72.63981 -41.94914,94.56875 -4.33031,4.05125 -10.45201,8.90816 -13.60379,10.79313 -7.39701,4.42389 -23.51497,9.80874 -31.94464,10.67238 L 197,898.27619 Z m 483.5,7.27347 C 639.92665,882.56388 611.54213,839.86255 606.0389,781.5 c -2.19368,-23.26429 -1.04716,-58.36814 2.51488,-77 7.87441,-41.18851 30.84404,-74.93667 60.53497,-88.94112 11.21494,-5.2898 17.50289,-6.56095 32.37135,-6.5441 15.73521,0.0178 22.96053,1.53363 34.5399,7.24607 10.27721,5.07006 17,11.28382 17,15.71283 0,2.11294 -0.48501,3.02632 -1.60699,3.02632 -1.14402,0 -1.39507,0.50417 -0.8714,1.75 1.48547,3.53403 1.80987,6.5729 0.62338,5.83961 C 750.51524,642.2004 750,642.35852 750,642.94098 c 0,0.58246 0.70714,1.05902 1.57143,1.05902 1.42857,0 1.42857,0.14286 0,1.57143 C 749.78841,647.35445 749.51415,649 751,649 c 0.55,0 1,0.95008 1,2.11129 0,1.89557 -0.38315,2.04087 -3.75,1.42209 -2.11369,-0.38847 -5.71358,-2.33001 -8.25,-4.44951 -11.10494,-9.27956 -20.37121,-13.04208 -34,-13.80552 -17.58829,-0.98523 -30.48912,4.21077 -44,17.72165 -13.30231,13.30231 -21.96189,30.27276 -28.66936,56.18427 -2.54312,9.82428 -2.68965,11.74509 -3.07573,40.31849 -0.39277,29.06877 -0.32567,30.39647 2.15535,42.64984 5.9954,29.61023 15.86296,49.75698 31.2644,63.83303 16.399,14.98777 41.89581,18.32852 62.08561,8.13485 8.29415,-4.18765 23.54833,-17.91259 25.97444,-23.37048 C 753.0489,836.79354 755,836.04663 755,838.5 c 0,0.825 0.45,1.5 1,1.5 1.58972,0 1.15832,4.00202 -0.5,4.63837 -2.07649,0.79683 -1.88806,3.35458 0.25,3.39343 2.57182,0.0467 5.57826,2.62804 4.70555,4.04013 -0.40961,0.66275 -0.7965,3.09992 -0.85977,5.41593 -0.14087,5.15648 -3.61564,10.59393 -12.14963,19.01214 -9.82794,9.69462 -20.73934,15.20625 -34.53536,17.44471 -8.83621,1.43372 -26.37616,1.20301 -32.41079,-0.4263 z m 79.8368,-44.70017 c -2.88913,-1.39756 -3.9883,-5.15979 -1.25392,-4.29194 1.36889,0.43447 1.91712,0.12925 1.91712,-1.06732 0,-1.28817 0.57827,-1.53066 2.5,-1.04834 1.61384,0.40505 2.5,0.20717 2.5,-0.55825 0,-0.65215 0.20715,-0.97857 0.46034,-0.72539 0.90091,0.90092 -0.71575,4.873 -1.98335,4.873 -0.79742,0 -1.0901,0.76345 -0.76674,2 0.57763,2.20884 -0.13924,2.38272 -3.37345,0.81824 z m 8.85136,-3.55676 C 769.69017,842.65475 773,842.36403 773,844.92668 773,846.35777 772.35777,847 770.92668,847 c -1.4311,0 -1.96962,-0.53852 -1.73852,-1.73852 z M 755,834 c 0,-0.55 0.675,-1 1.5,-1 0.825,0 1.5,0.45 1.5,1 0,0.55 -0.675,1 -1.5,1 -0.825,0 -1.5,-0.45 -1.5,-1 z m 2,-3.5 c 0,-0.825 0.45,-1.5 1,-1.5 0.55,0 1,0.675 1,1.5 0,0.825 -0.45,1.5 -1,1.5 -0.55,0 -1,-0.675 -1,-1.5 z M 746,654 c 0,-0.55 0.45,-1 1,-1 0.55,0 1,0.45 1,1 0,0.55 -0.45,1 -1,1 -0.55,0 -1,-0.45 -1,-1 z M 18.75,542.25138 0,541.95587 v -2.83864 c 0,-2.67766 0.29774847,-2.87441 5.25,-3.46925 2.8875,-0.34683 25.990586,-0.63451 51.340191,-0.63929 L 102.68038,535 l 0.45736,-91.25 c 0.25154,-50.1875 0.21096,-164.15 -0.0902,-253.25 L 102.5,28.5 98,28.696383 C 85.895257,29.224641 35.350421,29.064017 18.75,28.444538 L 0,27.744843 V 20.872422 14 l 6.75,-0.108734 c 3.7125,-0.0598 26.679237,-0.397304 51.037194,-0.75 37.700213,-0.545888 44.424206,-0.863123 45.208356,-2.132907 0.57506,-0.931181 0.54263,-1.8705153 -0.0863,-2.4999998 C 102.26644,7.8649939 83.459174,7.3911273 50.950886,7.1992202 L 0,6.8984403 V 3.4492202 0 l 73.25,0.00263731 c 89.52688,0.00322334 159.57359,1.47898599 164.31943,3.46192529 3.66555,1.5315665 4.9106,3.4214907 7.09108,10.7639814 1.41023,4.748753 1.38548,5.232894 -0.38902,7.609642 -4.7932,6.419968 -3.04886,6.173375 -45.47623,6.428872 L 160.11319,28.5 l -2.10255,2.257517 c -2.42074,2.599155 -6.29396,2.224952 -9.2996,-0.898461 C 147.18074,28.268781 145.33679,28 135.95721,28 h -10.96488 l 0.008,253.75 c 0.004,139.5625 0.006,255.4375 0.004,257.5 L 125,543 81.25,542.77344 c -24.0625,-0.1246 -52.1875,-0.35953 -62.5,-0.52206 z M 233.15246,10.856661 C 235.26105,9.6727164 234.48214,9.4682529 225.5,8.8478944 220,8.4680328 195.3625,7.9949216 170.75,7.7965361 L 126,7.4358352 v 2.9366998 2.936699 l 52.40246,-0.567232 c 40.66212,-0.440149 52.92841,-0.862544 54.75,-1.885341 z M 145,538.84568 v -4.15432 l 12.75,0.65026 c 7.0125,0.35765 26.3625,0.65209 43,0.65432 L 231,536 v 3.52237 3.52237 l -34,-0.0711 c -24.93791,-0.0521 -34,-0.37792 -34,-1.22237 0,-0.84138 -0.32305,-0.82827 -1.2,0.0487 -0.72821,0.72821 -4.26667,1.2 -9,1.2 H 145 v -4.15432 z m 222.87375,3.13162 C 345.80447,539.35252 328.46851,530.03832 316.7319,514.5 c -6.76855,-8.961 -9.51096,-14.52125 -12.61083,-25.56855 L 302,481.37243 V 275.43869 69.504945 l 3.04203,-9.131091 c 8.68851,-26.079858 26.61215,-41.717946 54.44023,-47.498226 8.23594,-1.710719 16.30018,-1.928138 93.01774,-2.507837 107.95561,-0.815742 115.84454,-0.23664 137,10.056752 16.22365,7.893773 29.38766,22.723137 34.92129,39.339114 5.68419,17.068084 5.54255,14.190332 5.56135,112.986343 L 630,264 H 477 324 v 38 38 h 204.46286 204.46287 l 0.34104,-123.25 C 733.65332,77.054924 733.08229,86.722051 741.98956,69.078475 747.89283,57.385228 752.10831,51.398147 760.15954,43.272339 775.51149,27.778181 797.0366,18.390968 829.4188,13.068015 877.94081,5.0920155 935.01,8.8228884 970.94374,22.320144 c 22.21046,8.342585 40.29386,23.340287 49.54686,41.092319 L 1024,70.145326 v 30.534324 c 0,34.60921 0.7626,32.37643 -8.5688,25.0885 L 1010,121.52634 v -9.6513 c 0,-11.2576 -2.8167,-22.463251 -8.7363,-34.754905 C 996.68408,67.610767 985.68849,56.165665 975.5,50.303186 953.60961,37.707411 924.16219,31.760977 884,31.826232 806.02944,31.952919 769.09835,50.70259 757.5974,96 l -2.41204,9.5 -0.61179,117.25 L 753.96178,340 H 888.98089 1024 V 351.5 363 H 889.5 755 l 0.0524,30.25 c 0.0717,41.38946 1.21291,62.48332 3.82761,70.75 2.57527,8.142 10.42252,20.96892 16.77508,27.42013 13.41979,13.62819 36.82076,22.80635 69.34489,27.19798 18.24559,2.46364 58.01636,2.46475 76,0.002 38.99596,-5.34001 64.16833,-17.51323 77.33453,-37.39855 5.78589,-8.73853 9.04709,-18.39417 12.19379,-36.10231 1.4055,-7.90934 3.2334,-15.69174 4.0621,-17.29422 1.3445,-2.59997 6.6911,-6.8116 8.6596,-6.82141 0.4125,-0.002 0.7401,13.83376 0.728,30.74626 -0.025,34.71776 0.1639,33.6917 -8.4005,45.69356 -8.8647,12.4228 -23.50035,24.0728 -38.56735,30.69972 -25.64529,11.27957 -56.00536,15.526 -104.01017,14.5478 -44.07751,-0.89818 -70.72198,-6.27613 -94,-18.97306 -17.97446,-9.80413 -34.33588,-29.3014 -41.03371,-48.89829 -4.09566,-11.98331 -4.92656,-22.22422 -5.64461,-69.56973 L 731.6809,363 h -12.68145 c -6.97481,0 -19.50301,-0.29526 -27.84046,-0.65613 L 676,361.68774 l -0.0318,4.40613 C 675.91769,373.09106 671.53054,377 663.72783,377 655.77115,377 650,372.72729 650,366.83651 c 0,-1.49516 -0.3375,-2.91913 -0.75,-3.16438 -0.4125,-0.24524 -4.87752,-0.7668 -9.92226,-1.15902 l -9.17225,-0.71313 -0.41364,58.35001 c -0.39786,56.12539 -0.49738,58.67408 -2.61035,66.85001 -3.70837,14.34924 -9.23057,24.19094 -19.08756,34.01796 -9.31477,9.28644 -15.54393,13.10867 -29.81839,18.29664 L 569.5,542.48585 472,542.62562 c -53.625,0.0769 -100.48181,-0.21487 -104.12625,-0.64832 z M 532.5778,519.14318 569.6556,518.5 l 8.63775,-4.28137 c 11.5227,-5.71131 17.60342,-11.72737 22.80019,-22.55771 5.2839,-11.01196 5.56963,-14.55771 6.3588,-78.91092 L 608.0747,362 h -12.09348 -12.09348 l 0.30613,20.94671 0.30613,20.94672 3.5,3.60883 c 3.21779,3.31784 3.5,4.09735 3.5,9.66761 0,5.89761 -0.11648,6.16214 -4.37861,9.94445 -6.55094,5.81345 -12.97897,5.06738 -20.87139,-2.42244 -6.39206,-6.06599 -3.22078,-15.60517 6.90532,-20.77112 L 577,401.95935 V 381.97968 362 H 450 323 l 0.0573,11.25 c 0.20848,40.94426 1.90808,102.96062 2.95297,107.75 3.66965,16.82036 14.45965,29.23484 30.57048,35.17297 5.19622,1.91523 8.72876,2.25882 28.91927,2.81279 31.36753,0.86065 102.17009,0.93643 147.0778,0.15742 z M 571,499.81914 c -12.24834,-8.2554 -6.663,-25.80361 8.21667,-25.8154 4.02984,-0.003 5.20994,0.48954 8.10421,3.3838 5.73987,5.73988 6.03406,15.9821 0.60836,21.18025 -4.15003,3.97598 -12.02332,4.55795 -16.92924,1.25135 z m 6,-44.70564 V 439.227 l 3,-0.44031 3,-0.4403 V 454.67319 471 h -3 -3 z M 606.95144,166.75 c -0.0267,-41.3875 -0.40223,-79.635665 -0.8345,-84.995923 -0.69221,-8.583645 -1.27836,-10.730285 -4.91495,-18 -2.27095,-4.539742 -5.95285,-10.359301 -8.182,-12.932353 -5.35873,-6.185462 -14.65901,-12.28668 -22.87006,-15.003327 -6.60583,-2.185558 -7.2242,-2.202733 -93.2451,-2.589819 -53.33453,-0.24 -92.66069,0.0077 -102.38696,0.644897 -14.93088,0.978165 -16.19304,1.225113 -23.15165,4.529744 -10.05635,4.775737 -16.32907,11.246233 -21.66088,22.343826 L 325.5,69.5 324.85167,105 c -0.35657,19.525 -0.69407,58.3375 -0.75,86.25 L 324,242 H 465.5 607 l -0.0486,-75.25 z m -35.34734,39.98355 c -6.83092,-3.91622 -9.30864,-11.71826 -6.13418,-19.31581 1.12886,-2.70174 2.63158,-4.02845 6.47644,-5.71788 l 5.0065,-2.19986 0.0236,-47.64301 C 577.00182,80.532111 576.75156,83 581.93092,83 c 1.65577,0 1.81278,3.07743 2.48726,48.75 l 0.71992,48.75 2.30876,2.5 c 5.02122,5.43712 5.98151,11.84688 2.69904,18.0156 -2.05879,3.86907 -8.2947,7.9515 -12.1459,7.9515 -1.375,0 -4.25315,-1.0051 -6.3959,-2.23355 z M 569.21679,80.439296 c -5.237,-3.668141 -6.77731,-12.367573 -3.22219,-18.198436 2.8328,-4.646168 7.57542,-7.232654 13.27009,-7.237122 4.01477,-0.0031 5.34089,0.524318 8.4257,3.351338 3.29956,3.023816 3.70486,3.961088 4.10499,9.492879 0.52521,7.260877 -1.11303,10.551167 -6.34104,12.735571 -4.56116,1.905774 -13.42314,1.827057 -16.23755,-0.14423 z M 261.5,502.04597 c -8.86023,-3.66483 -10.02338,-17.2495 -2.20871,-25.79597 2.11952,-2.318 7.08302,-3.0714 8.21098,-1.24633 0.34116,0.55202 1.60522,0.76719 2.80902,0.47816 3.14832,-0.75591 8.0486,2.64947 10.13284,7.04168 2.88145,6.07221 1.70394,12.0155 -3.30655,16.68924 -3.56333,3.32383 -4.64609,3.77949 -8.84886,3.72386 -2.63379,-0.0349 -5.68872,-0.43565 -6.78872,-0.89064 z m 395.91844,-0.0148 c -2.73684,-1.10717 -7.25673,-6.53868 -8.04076,-9.66251 -3.03583,-12.09567 11.5401,-22.24516 21.27898,-14.81695 11.36305,8.66702 6.45115,25.61527 -7.357,25.38492 -2.08981,-0.0349 -4.73636,-0.44232 -5.88122,-0.90546 z M 146.51368,342.8321 c -7.49018,-5.89177 -7.11957,-18.97305 0.67614,-23.86587 4.63933,-2.91178 12.36731,-2.30414 17.15685,1.34902 5.79586,4.42072 7.20164,13.14659 3.12126,19.37405 -3.53421,5.39387 -15.76112,7.22771 -20.95425,3.1428 z M 257.88235,318.11765 C 254.39097,314.62626 254,313.72343 254,309.15244 c 0,-13.14025 16.0552,-18.68722 24.90726,-8.60529 2.41306,2.74834 3.09192,4.44879 3.089,7.73765 -0.008,8.47252 -5.9637,13.7152 -15.58179,13.7152 -4.06791,0 -5.13559,-0.48582 -8.53212,-3.88235 z M 657.5,258.1293 c -5.65624,-3.51296 -7.8034,-6.7304 -8.25616,-12.37161 -0.34604,-4.31146 -10e-4,-5.8693 1.91709,-8.65608 4.58836,-6.66633 12.4845,-8.83459 18.59821,-5.10701 9.85353,6.00777 9.51343,18.8617 -0.68082,25.7316 -4.09322,2.75842 -7.58998,2.88016 -11.57832,0.4031 z m -2.33211,-52.64149 c -6.1161,-5.14636 -7.69876,-11.45947 -4.54104,-18.11388 0.89476,-1.88558 2.70865,-4.27927 4.03085,-5.31932 l 2.404,-1.89098 0.60476,-46.33182 c 0.33262,-25.48249 1.01413,-46.852489 1.51447,-47.488875 0.61155,-0.777847 -0.73029,-2.79706 -4.09422,-6.160989 -5.39382,-5.393814 -6.64392,-8.360822 -5.77605,-13.708893 C 650.40843,59.708304 656.21124,55 663.45079,55 c 7.95997,0 13.5388,5.837401 13.54547,14.173275 0.005,5.727665 -2.90074,9.621462 -9.49002,12.718788 -2.47843,1.165 -4.50624,2.367435 -4.50624,2.672077 0,0.304642 0.4483,0.276832 0.99621,-0.0618 0.65611,-0.405501 0.98065,14.415145 0.95062,43.41249 -0.0276,26.6961 -0.41982,44.25946 -0.99622,44.61569 -0.52283,0.32313 -0.94892,1.79846 -0.94686,3.2785 0.003,2.24999 0.74648,2.99644 4.53603,4.55494 2.49913,1.0278 5.69292,3.38563 7.11957,5.25608 2.25229,2.9529 2.52754,4.11275 2.12577,8.95758 -0.39361,4.74637 -0.98992,6.09385 -4.05179,9.15571 -3.02731,3.02732 -4.43189,3.66006 -8.95799,4.03539 -4.73307,0.39251 -5.75079,0.12282 -8.60745,-2.28091 z M 261.24086,81.005402 c -6.84157,-4.171355 -9.25742,-13.185876 -5.28134,-19.706853 2.79449,-4.583132 7.28669,-6.625437 13.30182,-6.047459 14.02536,1.347659 17.3478,19.652292 4.71873,25.997356 -4.55493,2.288476 -8.71744,2.209062 -12.73921,-0.243044 z"
       id="path170" />
  </g>
</svg>
